<?xml version="1.0" encoding="UTF-8" standalone="no"?>
<svg
   xmlns:dc="http://purl.org/dc/elements/1.1/"
   xmlns:cc="http://creativecommons.org/ns#"
   xmlns:rdf="http://www.w3.org/1999/02/22-rdf-syntax-ns#"
   xmlns:svg="http://www.w3.org/2000/svg"
   xmlns="http://www.w3.org/2000/svg"
   version="1.1"
   id="svg2"
   viewBox="0 0 708.66142 708.6612"
   height="200mm"
   width="200mm">
  <defs
     id="defs4" />
  <metadata
     id="metadata7">
    <rdf:RDF>
      <cc:Work
         rdf:about="">
        <dc:format>image/svg+xml</dc:format>
        <dc:type
           rdf:resource="http://purl.org/dc/dcmitype/StillImage" />
        <dc:title></dc:title>
      </cc:Work>
    </rdf:RDF>
  </metadata>
  <g
     transform="translate(0,-343.70104)"
     id="layer1">
    <rect
       y="343.36237"
       x="-1"
       height="720"
       width="715"
       id="rect3455"
       style="fill:#ff6600;fill-opacity:1;fill-rule:evenodd;stroke:#000000;stroke-width:1px;stroke-linecap:butt;stroke-linejoin:miter;stroke-opacity:1" />
    <g
       style="stroke:#ffffff;stroke-width:40;stroke-miterlimit:4;stroke-dasharray:none"
       transform="matrix(0.95304355,0,0,0.95304355,19.359873,47.038972)"
       id="g3411">
      <path
         id="path3453"
         d="M 346.80063,985.61224 C 331.37042,959.59142 298.99797,929.53142 231.28571,878.34887 163.02084,826.74862 134.66693,803.0212 106.28323,773.74298 65.268275,731.43544 44.216395,689.61234 36.125185,634.36224 c -2.268776,-15.49214 -2.558333,-63.2765 -0.466592,-77 3.696404,-24.25138 16.383073,-51.67265 34.846133,-75.31727 17.521895,-22.43932 35.826834,-36.84284 64.280984,-50.58046 21.64917,-10.45218 32.73114,-12.98446 62,-14.16726 18.92401,-0.76474 38.96721,0.6433 50.70395,3.56196 10.17893,2.53128 34.96508,14.98854 47.26448,23.75464 11.66179,8.31165 28.36189,24.75587 37.32021,36.74839 8.43264,11.28878 15.08753,24.4995 17.8831,35.5 1.18807,4.675 2.45094,8.84299 2.80639,9.2622 0.35545,0.41922 3.25292,-4.98078 6.43882,-12 11.26344,-24.81578 20.82335,-38.68008 37.8887,-54.94821 37.22406,-35.48512 93.40115,-49.99481 146.74254,-37.90139 49.60078,11.24537 90.48032,42.65777 113.40033,87.13841 10.38159,20.14743 15.98241,47.29354 17.2173,83.44899 0.90009,26.35303 -2.20183,56.97478 -7.7942,76.94321 -9.37392,33.47103 -30.83465,69.54709 -59.52126,100.05679 -26.44108,28.12148 -50.21365,48.35536 -105.35036,89.66835 -31.03066,23.25073 -49.20239,37.82145 -71.82313,57.59025 -34.69988,30.32504 -68.70888,63.67396 -73.80869,72.37613 -1.40702,2.4009 -3.11978,4.36527 -3.80614,4.36527 -0.68635,0 -3.18256,-3.2625 -5.54712,-7.25 z"
         style="fill:#fef3f3;stroke:#ffffff;stroke-width:40;stroke-miterlimit:4;stroke-dasharray:none" />
      <path
         id="path3451"
         d="m 346.4617,984.84799 c -9.58538,-15.99489 -23.42155,-31.12831 -49.12216,-53.72773 -18.59504,-16.35126 -32.41429,-27.3642 -73.05383,-58.21859 -41.64698,-31.61926 -63.7354,-49.15855 -82,-65.11204 C 124.4925,792.24789 96.697503,764.362 87.535761,752.86065 57.815945,715.55137 41.758367,677.67036 35.60927,630.36224 33.642227,615.22878 33.984155,567.154 36.149114,554.4608 c 6.087253,-35.68967 32.098655,-77.09711 64.136596,-102.09874 21.17313,-16.523 49.0891,-29.54778 70.54283,-32.91323 22.68792,-3.55906 59.60519,-2.87141 76.59394,1.42669 8.09391,2.04773 23.16331,8.86158 35.38815,16.00128 27.21923,15.89688 55.33441,46.92715 64.31684,70.98544 1.33476,3.575 3.00511,9.10804 3.71188,12.29564 0.70678,3.18761 1.6014,5.99117 1.98806,6.23013 0.38665,0.23897 1.9436,-2.36907 3.45987,-5.79564 11.12169,-25.1335 20.976,-40.86885 34.48975,-55.07319 13.37752,-14.06115 25.33457,-22.87118 43.07741,-31.73968 65.52973,-32.75408 151.246,-15.54652 199.66474,40.08274 27.94063,32.10154 39.01171,64.08504 40.92402,118.22626 1.23945,35.09125 -3.66417,68.68535 -13.70617,93.89919 -13.07002,32.81671 -31.39713,60.05335 -60.40236,89.76631 -24.68123,25.28345 -46.97965,43.99035 -97.54896,81.83709 -31.16664,23.32553 -49.41178,37.94094 -71.82313,57.53446 -35.47723,31.01659 -71.3388,66.21344 -75.22462,73.83029 -1.09609,2.14852 -2.55103,3.9064 -3.2332,3.9064 -0.68216,0 -3.40154,-3.60641 -6.04306,-8.01425 z"
         style="fill:#feebeb;stroke:#ffffff;stroke-width:40;stroke-miterlimit:4;stroke-dasharray:none" />
      <path
         id="path3449"
         d="M 346.4617,984.84799 C 330.23268,957.76702 301.86923,931.76662 224.28571,872.85087 181.67058,840.48959 162.62638,825.35669 142.87234,808.1582 124.29457,791.9838 97.444838,765.12843 87.58799,752.86224 63.125306,722.42005 46.320373,687.52373 39.383867,652.76384 35.100054,631.297 34.330769,621.98641 34.393199,592.36224 c 0.08295,-39.36057 2.058381,-49.68074 14.371958,-75.08278 9.56367,-19.72919 20.286521,-34.78667 35.966171,-50.50524 10.220947,-10.24632 16.382582,-15.45758 25.054382,-21.19001 12.70288,-8.39715 32.29131,-18.2222 44.2586,-22.19899 21.30183,-7.0787 70.06206,-8.40064 93.31666,-2.5299 9.53725,2.40772 30.52669,12.62792 42.92474,20.90094 17.36438,11.58698 34.12462,28.38867 46.02689,46.14074 7.41119,11.05369 10.38302,17.36312 13.40977,28.47 1.19834,4.39738 2.42197,8.67024 2.71918,9.49524 0.31455,0.87311 3.84498,-5.35932 8.44754,-14.91282 4.34893,-9.02706 10.91149,-20.95206 14.58347,-26.50001 8.39977,-12.69113 26.26723,-30.75694 38.81315,-39.24404 48.90942,-33.08637 112.03884,-37.15916 167.15077,-10.78372 11.45237,5.48088 27.40656,16.11833 37.84923,25.23598 21.36142,18.65097 40.51157,48.11392 46.9311,72.20461 13.02216,48.8685 10.66431,113.58963 -5.62854,154.49884 -22.57924,56.69352 -62.51091,100.3006 -154.30256,168.50495 -37.0428,27.52407 -59.32515,45.68829 -92.5,75.40456 -20.47899,18.34399 -55.23386,53.29016 -58.02228,58.34165 -1.2903,2.3375 -2.83042,4.25 -3.42248,4.25 -0.59207,0 -3.23773,-3.60641 -5.87925,-8.01425 z"
         style="fill:#fee3e3;stroke:#ffffff;stroke-width:40;stroke-miterlimit:4;stroke-dasharray:none" />
      <path
         id="path3447"
         d="M 347.54061,986.4794 C 337.97076,969.8405 322.02568,952.40921 294.78108,928.80226 273.46915,910.33586 267.82443,905.83862 228.28571,875.8242 165.6056,828.24281 151.03214,816.34012 121.35918,788.49326 70.037614,740.33005 44.098062,693.31558 36.281571,634.29324 c -2.204341,-16.64497 -2.951988,-46.0822 -1.615673,-63.61411 1.79231,-23.5144 4.385629,-33.26862 14.175163,-53.31689 17.971875,-36.80513 43.682701,-63.78088 78.029669,-81.86859 24.12682,-12.70559 36.11422,-16.04363 63.73279,-17.74716 21.29144,-1.31328 44.30878,-0.0488 56.67245,3.11326 13.87728,3.54921 36.27518,15.31988 51.25604,26.93637 10.65437,8.26162 25.29714,22.97231 32.81476,32.96694 10.99625,14.61944 14.647,22.1817 20.01139,41.4521 l 1.62931,5.85293 4.74408,-10.35293 c 12.67408,-27.65843 20.1114,-38.9984 36.0089,-54.90423 26.49544,-26.50932 59.32653,-41.425 99.21541,-45.07512 29.21966,-2.67382 62.45936,3.80393 89.86901,17.51365 32.95647,16.48412 58.72349,42.26291 75.31187,75.34627 17.9307,35.76043 21.77466,107.51643 8.45153,157.76651 -4.75576,17.937 -16.70108,43.38856 -29.40982,62.66267 -18.71269,28.37972 -49.4441,59.91567 -90.39274,92.7592 -7.975,6.39648 -28.675,22.24912 -46,35.22809 -49.10386,36.786 -83.55406,66.35483 -121.54243,104.32068 -12.12334,12.11615 -22.91317,23.71686 -23.9774,25.77936 -1.06424,2.0625 -2.4118,3.75 -2.99458,3.75 -0.58278,0 -2.71159,-2.87228 -4.73069,-6.38284 z"
         style="fill:#fedbdb;stroke:#ffffff;stroke-width:40;stroke-miterlimit:4;stroke-dasharray:none" />
      <path
         id="path3445"
         d="m 348.42304,987.93723 c -3.90466,-7.17414 -12.92386,-19.50663 -20.35941,-27.83864 -13.15576,-14.74185 -46.14016,-43.33755 -78.77792,-68.29621 -10.45,-7.9913 -31.15,-23.81214 -46,-35.15743 C 132.02916,802.2055 96.257046,768.01531 72.206363,731.36224 c -19.142998,-29.17379 -29.988335,-57.99436 -35.560861,-94.5 -2.928098,-19.18198 -3.214879,-65.4645 -0.504999,-81.5 6.998356,-41.41222 37.67959,-86.33379 76.084417,-111.39812 9.44761,-6.16584 31.53064,-17.15036 40.33549,-20.06365 16.5289,-5.46897 42.85465,-7.71877 70.68435,-6.0407 19.83269,1.19587 28.54701,3.30979 43.04095,10.44087 22.7273,11.18194 35.17537,20.21362 52.00608,37.73296 17.39686,18.10865 27.30024,34.11027 31.45777,50.82864 1.16258,4.675 2.33427,9.13307 2.60376,9.90681 0.26948,0.77375 3.78988,-5.5901 7.8231,-14.14188 8.66483,-18.37235 12.40328,-24.71415 21.53109,-36.52472 45.16208,-58.4357 131.09782,-75.83669 201.1126,-40.72296 38.76629,19.44203 69.85701,54.22933 81.76156,91.48275 6.71083,21.00049 9.61974,43.70903 9.6073,75 -0.0165,41.50403 -5.47278,68.1902 -20.34386,99.5 -13.50098,28.42516 -31.92654,53.28628 -59.74175,80.60796 -23.90222,23.47811 -42.93183,39.18623 -92.81765,76.61693 -50.23176,37.69027 -84.89228,67.44462 -122.5299,105.18591 -11.84145,11.87406 -22.40628,23.2767 -23.47741,25.3392 -1.07112,2.0625 -2.44865,3.75 -3.06117,3.75 -0.61251,0 -2.3199,-2.21625 -3.79419,-4.92501 z"
         style="fill:#fed3d3;stroke:#ffffff;stroke-width:40;stroke-miterlimit:4;stroke-dasharray:none" />
      <path
         id="path3443"
         d="m 347.36414,986.09308 c -8.72252,-14.971 -19.969,-28.01156 -39.33551,-45.61043 -18.42361,-16.74205 -37.89777,-32.87436 -60.24292,-49.90497 -75.47389,-57.52332 -83.9664,-64.22459 -107.5,-84.82616 C 122.09753,789.8294 97.761182,765.2969 87.819305,752.86224 48.348739,703.495 31.854246,651.29647 34.20038,583.1796 35.16332,555.22194 37.471766,543.11835 45.352803,524.70548 60.4032,489.54247 87.130381,458.6725 118.51726,440.20034 c 17.6905,-10.41141 34.27133,-17.27401 48.26845,-19.97771 11.73552,-2.26685 37.63937,-3.40686 55,-2.42051 21.56627,1.2253 30.99633,3.61339 47.51888,12.0338 18.09407,9.2213 29.91422,17.54609 43.34353,30.52632 20.02637,19.35668 32.38489,38.31494 37.15719,57 1.26427,4.95 2.56978,9.32022 2.90114,9.71161 0.33136,0.39138 3.03862,-4.71504 6.01612,-11.34761 13.70515,-30.52903 28.67092,-50.19443 50.90375,-66.88882 37.25838,-27.97692 86.24411,-37.95936 134.15939,-27.33934 32.43361,7.18863 61.41421,23.5594 85.07251,48.05635 16.79636,17.39178 28.89263,36.78876 35.47709,56.88934 6.90338,21.07417 9.82561,43.57051 9.7967,75.41847 -0.0395,43.5306 -5.47582,69.01528 -21.86493,102.5 -22.8978,46.78269 -64.54586,90.09676 -140.87712,146.51251 -36.94751,27.30757 -61.32604,46.95657 -91.60425,73.83267 -23.46188,20.82566 -58.83811,55.93184 -63,62.51908 -1.925,3.0468 -3.95,5.55264 -4.5,5.56853 -0.55,0.0159 -2.76471,-2.99998 -4.92157,-6.70195 z"
         style="fill:#fec7c7;stroke:#ffffff;stroke-width:40;stroke-miterlimit:4;stroke-dasharray:none" />
      <path
         id="path3441"
         d="M 346.80483,985.09998 C 332.13368,959.76534 300.95803,930.73238 233.78571,879.84862 168.42606,830.33797 152.17021,817.08859 120.54147,787.54849 69.962073,740.30916 44.454629,693.55809 36.144455,632.86224 c -2.146193,-15.67536 -2.408196,-59.6721 -0.440675,-74 5.827819,-42.4394 37.397023,-89.61326 77.08193,-115.18353 10.44755,-6.73169 29.75723,-16.11355 40.69652,-19.77292 14.16612,-4.73881 25.57183,-6.08273 51.80348,-6.10395 36.8841,-0.0298 47.07749,2.2761 72,16.2877 14.8337,8.33961 23.42779,14.74349 35.70843,26.60812 19.52766,18.86616 32.17417,38.42886 36.95464,57.16458 1.19283,4.675 2.45625,8.83963 2.8076,9.25474 0.35134,0.4151 3.08917,-4.74861 6.08407,-11.47491 6.50789,-14.61625 13.2523,-26.59706 20.45534,-36.33702 52.46203,-70.93922 158.7759,-82.8103 232.02876,-25.90848 21.2707,16.52279 42.46996,44.29713 50.88742,66.67048 9.23587,24.54864 13.88289,63.7308 11.67598,98.44803 -1.92158,30.22871 -5.81482,48.95619 -14.71161,70.76657 -15.26342,37.41811 -40.55956,71.1273 -80.37086,107.1008 -19.44813,17.57333 -35.22802,30.22926 -73.51977,58.965 -52.07931,39.0825 -85.43998,67.52651 -124.54092,106.18622 -11.29751,11.17002 -22.09751,22.76688 -24,25.7708 -1.9025,3.00392 -3.90908,5.47777 -4.45908,5.49745 -0.55,0.0197 -3.0164,-3.44619 -5.48088,-7.70194 z"
         style="fill:#febbbb;stroke:#ffffff;stroke-width:40;stroke-miterlimit:4;stroke-dasharray:none" />
      <path
         id="path3439"
         d="m 347.78571,986.66767 c -15.29676,-26.97871 -44.9716,-54.51821 -120.5,-111.82911 C 170.99952,832.12864 154.85715,819.01914 125.87039,792.47732 71.219158,742.43577 43.819935,693.69357 36.388105,633.29167 33.052359,606.18053 33.500739,567.84016 37.37277,549.09446 42.501849,524.263 60.571782,491.95474 81.980305,469.33811 c 14.199592,-15.00089 28.291585,-25.21586 49.305405,-35.74038 26.26765,-13.15584 33.41788,-14.76592 68.60119,-15.44754 39.62185,-0.7676 50.49585,1.34338 74.74131,14.5096 37.23158,20.21818 67.46623,54.41955 75.32057,85.20245 1.19283,4.675 2.44116,8.82453 2.77404,9.22118 0.33289,0.39666 3.66254,-5.97209 7.39921,-14.15277 17.30183,-37.8788 40.526,-62.64845 74.16368,-79.099 50.52567,-24.70964 112.64215,-21.26011 162,8.99638 28.10985,17.23142 55.3575,49.16347 65.93851,77.27462 11.74937,31.2152 15.40868,82.1391 9.00096,125.25959 -7.20105,48.45918 -33.92114,95.09006 -79.71257,139.11132 -23.1908,22.29431 -43.88288,39.26036 -89.82918,73.65358 -50.4362,37.75415 -82.72758,65.44571 -121.47513,104.17132 -14.15402,14.14601 -24.61069,25.40325 -25.37132,27.31378 -0.71165,1.7875 -1.80182,3.24513 -2.42259,3.23917 -0.62077,-0.006 -2.70368,-2.78864 -4.62868,-6.18374 z"
         style="fill:#feb3b3;stroke:#ffffff;stroke-width:40;stroke-miterlimit:4;stroke-dasharray:none" />
      <path
         id="path3437"
         d="m 349.01109,988.22532 c -4.87707,-8.29777 -13.89562,-20.50358 -20.70329,-28.02008 -15.9757,-17.63913 -48.21647,-45.2458 -89.19332,-76.37319 -77.21126,-58.65224 -98.09451,-75.8855 -127.80827,-105.46981 -44.658618,-44.46406 -67.190997,-88.38966 -75.149666,-146.5 -1.263478,-9.2253 -1.701957,-19.31137 -1.67374,-38.5 0.05727,-38.94762 2.692985,-52.3707 15.155157,-77.18171 19.444836,-38.71283 44.540223,-64.01872 82.147749,-82.8368 25.68111,-12.85033 33.13427,-14.513 68.10119,-15.19219 39.51663,-0.76757 50.54174,1.36055 74.39881,14.36081 17.4175,9.49119 26.37132,16.22431 41.02476,30.84989 19.31357,19.27686 29.76883,35.73945 34.61253,54.5 1.20701,4.675 2.4696,8.82719 2.80574,9.2271 0.33614,0.3999 3.68694,-5.99113 7.44622,-14.20231 10.98774,-23.99987 23.75166,-41.98928 39.8699,-56.19247 25.76954,-22.70778 58.02691,-36.02989 93.74085,-38.71441 65.71576,-4.93968 127.61418,28.12526 160.54516,85.76012 13.45971,23.55681 19.75133,54.69038 19.72789,97.62197 -0.0238,43.54345 -5.68704,70.10583 -22.05212,103.43093 -12.6378,25.73502 -30.1174,49.10435 -56.16412,75.08854 -24.19169,24.13361 -44.86329,41.33865 -91.05681,75.78686 -36.46168,27.19082 -55.46319,42.62574 -86.5966,70.34239 -29.86832,26.5904 -60.92076,57.85765 -63.39681,63.83536 -0.68708,1.65876 -1.65571,3.01592 -2.15253,3.01592 -0.49681,0 -2.12972,-2.08661 -3.62868,-4.63692 z"
         style="fill:#fea8a8;stroke:#ffffff;stroke-width:40;stroke-miterlimit:4;stroke-dasharray:none" />
      <path
         id="path3435"
         d="m 349.01109,988.23241 c -16.34581,-27.76797 -46.36113,-56.27918 -110.22538,-104.70184 -70.28675,-53.29228 -82.33992,-63.04584 -114,-92.25002 C 73.342502,743.82782 46.949237,698.69234 37.76316,642.46211 33.402694,615.77063 33.113616,571.9824 37.158442,550.86224 c 4.423826,-23.09911 21.135609,-54.80345 40.367443,-76.58208 15.178473,-17.1885 31.487405,-29.48069 54.259825,-40.8961 27.00559,-13.53744 34.40728,-15.02804 74.5,-15.00332 38.66813,0.0238 43.62143,1.08192 68.99046,14.73722 14.20883,7.64813 24.49976,15.08043 36.21852,26.15768 20.50579,19.38327 32.56389,37.59344 37.91301,57.25633 1.47084,5.40665 2.97966,10.17984 3.35295,10.60709 0.37328,0.42725 3.31892,-5.11822 6.54586,-12.32326 15.7005,-35.05576 35.38948,-58.02706 64.65832,-75.43743 38.25175,-22.75378 88.74338,-28.00122 133.82088,-13.90759 25.76328,8.05497 48.11521,21.49178 67.12934,40.35464 22.40805,22.22977 35.01975,43.18904 41.86252,69.57092 12.02874,46.37611 9.43698,110.73639 -6.02202,149.54248 -23.13524,58.07543 -62.01392,100.93082 -152.3518,167.93511 -26.07077,19.3369 -50.80244,38.8778 -69.61804,55.00636 -35.1894,30.16405 -75.50231,69.00545 -82.39073,79.38329 -2.0439,3.07926 -3.9282,5.59866 -4.18734,5.59866 -0.25914,0 -1.69759,-2.08342 -3.19655,-4.62983 z"
         style="fill:#fe9797;stroke:#ffffff;stroke-width:40;stroke-miterlimit:4;stroke-dasharray:none" />
      <path
         id="path3433"
         d="M 350.15901,990.11224 C 339.3963,972.41889 331.96934,963.15782 316.66648,948.34858 294.19746,926.60434 276.36111,911.96192 222.28571,870.86849 164.15054,826.68993 138.02339,804.87758 111.04781,778.00116 73.508229,740.59955 50.182869,700.26914 40.359881,655.77913 c -4.255191,-19.2725 -5.788319,-35.9072 -5.752616,-62.41689 0.05473,-40.63678 3.057424,-54.59166 17.699677,-82.25837 18.074332,-34.15166 42.502714,-58.61761 75.581818,-75.69804 15.99177,-8.25737 28.02499,-12.90316 39.41155,-15.21602 7.5775,-1.53915 13.76437,-1.81701 39.4854,-1.77334 29.6041,0.0503 30.78056,0.12784 40.0513,2.64078 9.57296,2.59485 25.99798,10.20525 38.67675,17.92056 19.2772,11.73059 40.34331,32.63261 52.65832,52.24815 6.21887,9.9055 9.63409,18.0109 12.17127,28.88628 0.99443,4.2625 2.10949,7.75 2.47791,7.75 0.36843,0 3.04199,-5.2875 5.94124,-11.75 2.89924,-6.4625 7.516,-15.71661 10.25946,-20.56469 22.00184,-38.88044 58.0912,-64.86265 104.01472,-74.88446 8.9521,-1.95361 13.15949,-2.23663 33.24903,-2.23663 20.18087,0 24.28699,0.27878 33.5,2.27447 51.03513,11.05504 90.55859,40.2073 115.81174,85.42203 19.0413,34.09266 24.40438,106.90013 11.66262,158.32821 -6.30143,25.43373 -20.74339,54.27167 -40.01924,79.91107 -25.22851,33.55721 -56.4408,61.81047 -124.76913,112.94058 -43.07612,32.23388 -68.71695,53.69486 -108.0513,90.43725 -19.75894,18.45691 -34.80282,34.26004 -39.11146,41.08537 -1.40157,2.22024 -2.7573,4.0368 -3.01272,4.0368 -0.25542,0 -1.21717,-1.2375 -2.13721,-2.75 z"
         style="fill:#fe8787;stroke:#ffffff;stroke-width:40;stroke-miterlimit:4;stroke-dasharray:none" />
      <path
         id="path3431"
         d="M 350.1742,990.11224 C 330.57949,957.60447 304.91798,933.52223 226.28571,873.84814 168.6477,830.10661 150.23924,815.04831 121.48089,788.1168 78.876463,748.21876 53.932392,708.9767 42.344421,663.61916 c -6.224398,-24.36349 -7.048258,-32.4525 -7.053771,-69.25692 -0.0065,-43.28996 1.422555,-51.16525 13.972314,-77 18.31852,-37.71023 45.023722,-65.19657 80.753786,-83.11587 27.21878,-13.65073 40.0483,-16.38877 76.74273,-16.37823 31.78135,0.009 42.83609,2.22346 63.28889,12.67719 19.76871,10.10408 34.46846,20.93234 48.57148,35.77915 16.29449,17.15387 27.02785,35.0694 31.32606,52.28776 1.26999,5.0875 2.58686,9.25 2.9264,9.25 0.33953,0 2.1007,-3.2625 3.91371,-7.25 11.17106,-24.5694 17.47362,-35.24279 28.88692,-48.91999 21.0642,-25.24242 52.29917,-43.45897 87.17422,-50.84087 13.2506,-2.80472 38.97749,-3.77699 53.9336,-2.03825 68.8174,8.00045 127.06557,58.56743 141.50901,122.84823 3.50828,15.61365 4.69345,27.39529 5.21383,51.8298 1.02657,48.20366 -4.18457,75.23043 -21.21193,110.01237 -20.28907,41.44469 -53.14948,78.30486 -110.19505,123.60797 -6.496,5.15884 -24.18591,18.61259 -39.31091,29.89721 -42.29019,31.55233 -69.90561,54.65738 -108.13009,90.46941 -21.01501,19.68869 -34.92416,34.27349 -39.22854,41.13412 -1.46655,2.3375 -2.87544,4.25 -3.13086,4.25 -0.25542,0 -1.21033,-1.2375 -2.12202,-2.75 z"
         style="fill:#fe7777;stroke:#ffffff;stroke-width:40;stroke-miterlimit:4;stroke-dasharray:none" />
      <path
         id="path3429"
         d="m 346.91243,984.61224 c -7.11757,-11.72635 -16.04509,-22.43349 -30.2674,-36.30093 -21.87126,-21.32553 -42.02037,-37.88678 -94.85932,-77.96815 -60.20699,-45.67044 -79.46399,-61.81571 -109.0405,-91.42067 -11.29727,-11.30814 -23.948018,-25.06025 -28.112763,-30.56025 -28.922737,-38.19563 -43.085664,-72.99256 -48.43498,-119 -2.099333,-18.05557 -1.479054,-66.68075 1.001009,-78.47144 6.77392,-32.20449 30.6975,-71.10365 57.450729,-93.41349 20.742145,-17.29712 49.095775,-31.99138 70.676775,-36.62822 7.92495,-1.70274 14.77061,-2.2528 33.50773,-2.69242 37.65155,-0.8834 48.38437,1.02219 71.452,12.68614 18.55819,9.38378 30.46487,17.99538 44.9929,32.54144 19.12213,19.14587 29.78076,36.01843 34.41449,54.47799 2.16253,8.61493 4.09261,13.41081 4.09261,10.16935 0,-2.60874 15.92669,-34.16227 21.30381,-42.20655 22.65504,-33.89236 56.03391,-55.91379 98.69619,-65.11398 9.02184,-1.94558 13.52671,-2.27029 32,-2.30658 18.62301,-0.0366 23.02894,0.26739 32.92592,2.27162 43.95843,8.902 80.07574,32.08054 105.63923,67.79474 22.14553,30.93903 30.27419,64.25707 29.12813,119.3914 -0.72282,34.77339 -4.0231,54.209 -13.18292,77.63522 -18.93866,48.43557 -52.73319,89.22716 -115.26882,139.13489 -8.10785,6.47062 -28.01654,21.71824 -44.24154,33.8836 -32.82973,24.61543 -47.02935,36.06335 -73.5,59.25666 -36.0354,31.57383 -65.4093,60.52888 -71.86437,70.83963 -1.46339,2.3375 -2.84987,4.25 -3.08105,4.25 -0.23119,0 -2.67372,-3.7125 -5.42786,-8.25 z"
         style="fill:#fe6767;stroke:#ffffff;stroke-width:40;stroke-miterlimit:4;stroke-dasharray:none" />
      <path
         id="path3427"
         d="m 347.23864,985.11224 c -7.40211,-12.21379 -16.1397,-22.71637 -30.57786,-36.75455 -22.53827,-21.9139 -41.14359,-37.30241 -88.87507,-73.50878 C 159.95544,823.39675 135.43695,802.81236 106.77998,773.2591 65.542255,730.73161 45.124999,690.19128 36.575777,633.86224 c -2.056695,-13.55113 -1.74195,-69.95644 0.455609,-81.64967 5.795529,-30.83803 29.407152,-70.18875 55.805511,-93.0045 12.407623,-10.72374 23.885863,-18.18941 40.448813,-26.30869 25.71334,-12.60488 35.41643,-14.53714 73,-14.53714 35.25597,0 43.89482,1.72776 65.39287,13.07848 21.4385,11.31928 37.61635,23.95228 51.78605,40.43879 14.64206,17.03612 21.38215,28.8731 25.89831,45.48273 3.03623,11.16669 3.88857,12.77367 4.95959,9.35066 2.04335,-6.53061 15.25102,-32.34377 20.85807,-40.76517 22.62539,-33.98173 56.04822,-56.09062 98.60511,-65.22638 14.19918,-3.04816 48.47717,-3.33802 62.5,-0.5285 46.00664,9.21757 81.8826,31.8762 108.10617,68.27799 21.86074,30.3456 30.42982,65.89609 29.09556,120.70863 -0.81462,33.46512 -4.29332,53.54156 -13.25596,76.50352 -21.57046,55.26272 -61.16701,99.2202 -147.44577,163.6846 -38.07548,28.44863 -40.72958,30.50969 -60.7239,47.15548 -39.77166,33.11095 -88.90104,79.60494 -96.25231,91.08917 -1.84834,2.8875 -3.47613,5.25 -3.61731,5.25 -0.14118,0 -2.37028,-3.4875 -4.95355,-7.75 z"
         style="fill:#fe5757;stroke:#ffffff;stroke-width:40;stroke-miterlimit:4;stroke-dasharray:none" />
      <path
         id="path3425"
         d="M 347.92727,986.10463 C 341.50961,975.11608 335.13772,967.07891 322.86233,954.48905 301.01284,932.07983 278.79027,913.49267 225.28571,872.87509 182.80111,840.62323 165.81162,827.18457 146.55676,810.6006 128.9874,795.46834 103.12476,770.36556 93.916019,759.50648 61.467647,721.24291 44.527644,684.69057 37.077132,636.86224 c -1.458012,-9.35966 -1.783449,-17.54878 -1.74857,-44 0.03945,-29.91976 0.222735,-33.33362 2.308576,-43 6.621286,-30.68492 28.866006,-67.40989 54.522855,-90.01464 21.538477,-18.97629 53.153977,-35.2909 76.976047,-39.72209 7.16715,-1.33318 15.10828,-1.7086 36.64967,-1.73261 37.24067,-0.0415 44.72127,1.59303 69.83105,15.25845 15.9281,8.6685 27.14001,17.10066 40.16895,30.20991 18.17833,18.29039 29.62062,36.90606 34.0965,55.47227 1.26344,5.24079 2.54608,9.52016 2.85033,9.5097 0.30424,-0.0105 3.89151,-7.25589 7.9717,-16.10098 9.27321,-20.10258 18.45586,-34.09371 30.85426,-47.01108 29.87229,-31.12267 70.01482,-47.91938 114.35555,-47.84941 60.65164,0.0957 114.69602,30.36701 145.35632,81.41687 15.28625,25.45183 21.23982,50.80853 22.20286,94.56361 1.14549,52.04503 -6.54857,85.2922 -28.66409,123.8617 -12.4306,21.679 -27.25395,40.19357 -50.88704,63.55867 -24.24182,23.96692 -44.00217,40.38134 -88.56722,73.57055 -38.64468,28.78009 -66.08457,51.29939 -98.06917,80.48317 -20.11262,18.3514 -48.88071,47.61303 -51.93675,52.82776 -1.51431,2.58398 -2.91568,4.69815 -3.11416,4.69815 -0.19848,0 -2.13687,-3.04093 -4.30753,-6.75761 z"
         style="fill:#fe4747;stroke:#ffffff;stroke-width:40;stroke-miterlimit:4;stroke-dasharray:none" />
      <path
         id="path3423"
         d="m 346.94239,984.43033 c -7.48513,-12.24897 -15.4898,-21.89917 -29.37832,-35.4176 -22.88845,-22.27856 -40.49111,-36.83735 -90.27836,-74.66729 -57.00423,-43.31364 -69.12355,-53.08299 -95,-76.57925 C 87.807186,757.37892 64.482839,725.7765 49.273603,685.29213 38.391356,656.32547 34.185446,626.87017 35.04525,585.64654 c 0.719683,-34.50545 3.037074,-45.37192 14.6963,-68.91239 17.136822,-34.59997 40.623793,-59.97581 71.9098,-77.69293 30.99316,-17.55128 51.13666,-22.07995 93.0338,-20.91592 28.88219,0.80244 39.55316,3.56163 61.80884,15.98191 15.26051,8.51647 25.78179,16.39579 37.72901,28.25503 19.19889,19.05752 31.09211,38.02669 35.62147,56.81473 1.28419,5.3269 2.58488,9.68527 2.89042,9.68527 0.30554,0 3.89478,-7.24842 7.97608,-16.10761 10.27908,-22.31254 18.56264,-34.54569 33.49333,-49.4629 22.71111,-22.69063 47.93173,-36.00295 80.75391,-42.62472 9.66915,-1.95073 14.32871,-2.27888 31.8275,-2.24152 18.29015,0.0391 21.85376,0.33089 33.05836,2.70725 49.41311,10.47989 89.1096,39.10196 113.6727,81.9606 14.76432,25.76135 21.22807,60.35084 19.95195,106.7689 -1.02568,37.30797 -5.42296,58.64258 -17.81865,86.4519 -12.54012,28.13336 -29.18078,51.65828 -55.82702,78.92271 -25.22007,25.80519 -47.37359,44.40386 -98.12343,82.37813 -30.87517,23.10278 -49.01232,37.64308 -71.73704,57.51057 -35.18433,30.76052 -69.62861,64.53227 -74.7765,73.31648 -1.42473,2.43112 -2.70307,4.42021 -2.84075,4.42021 -0.13769,0 -2.56901,-3.79436 -5.40294,-8.43191 z"
         style="fill:#fe3737;stroke:#ffffff;stroke-width:40;stroke-miterlimit:4;stroke-dasharray:none" />
      <path
         id="path3421"
         d="m 347.74347,985.61224 c -15.67584,-26.61483 -44.96029,-53.92813 -114.45776,-106.75359 -53.70354,-40.82039 -70.14216,-53.83641 -91,-72.05334 -16.96817,-14.81975 -45.299185,-43.18665 -53.874833,-53.94307 -24.266342,-30.43722 -40.902051,-64.60782 -47.954002,-98.5 -4.552352,-21.87893 -5.172483,-29.2876 -5.147755,-61.5 0.03239,-42.19879 1.878272,-51.24044 16.128058,-79 10.225145,-19.91928 18.324657,-31.01965 34.325033,-47.04242 16.055759,-16.07823 26.477089,-23.38881 49.023499,-34.39004 25.05301,-12.22431 43.17221,-15.42989 80.5,-14.24175 29.00569,0.92325 39.61057,3.77329 62.61031,16.82639 36.2434,20.56931 64.26614,53.47387 72.04661,84.59782 1.27179,5.0875 2.58424,9.25 2.91654,9.25 0.33231,0 3.26423,-5.94639 6.51537,-13.21419 11.03705,-24.6729 21.31303,-39.78406 37.55814,-55.23047 50.01833,-47.55916 128.67566,-56.16127 192.38388,-21.03946 25.99589,14.33132 47.14736,35.19508 63.5347,62.6705 12.90209,21.63197 19.50043,50.36391 20.62584,89.81362 1.63097,57.17163 -8.96223,96.77811 -37.17712,139 -12.48065,18.67654 -19.9953,27.60905 -40.44942,48.08134 -26.83463,26.85846 -41.19989,38.82825 -95.56485,79.62903 -33.76229,25.33852 -53.78151,41.64475 -82.5,67.19858 -23.34037,20.76836 -59.03091,56.39369 -62.45518,62.34105 -1.50417,2.6125 -2.86582,4.75 -3.02588,4.75 -0.16005,0 -2.21258,-3.2625 -4.56118,-7.25 z"
         style="fill:#fe2727;stroke:#ffffff;stroke-width:40;stroke-miterlimit:4;stroke-dasharray:none" />
      <path
         id="path3419"
         d="m 347.39152,984.93783 c -9.11088,-15.42901 -19.64699,-27.43213 -41.10581,-46.82923 -21.59498,-19.52018 -38.35553,-33.05561 -81.5,-65.81747 C 162.30626,824.8472 139.14041,805.49732 111.262,777.46753 63.592802,729.53946 41.404497,683.85681 35.745203,621.98888 34.185795,604.94128 35.0032,565.94843 37.18644,553.23722 41.871358,525.9608 59.952204,493.03824 83.726866,468.49397 97.724071,454.04365 111.17658,444.33169 130.78571,434.5201 c 25.65073,-12.83456 35.92444,-15.33796 67,-16.32593 19.83084,-0.63047 38.12901,0.58316 49,3.24995 8.81303,2.16194 31.38902,13.13656 43,20.90311 29.76006,19.90642 53.33886,50.23405 60.07119,77.26501 1.26709,5.0875 2.60235,9.25 2.96725,9.25 0.3649,0 3.76803,-6.85535 7.56251,-15.23412 26.6905,-58.93652 75.05848,-92.28699 138.39905,-95.42829 58.06803,-2.87982 113.72627,24.60332 146.80089,72.48791 14.52852,21.03401 21.16943,39.18344 25.85993,70.6745 2.50744,16.83444 2.511,61.80454 0.006,79 -3.65377,25.08361 -9.02357,42.25306 -20.30985,64.93884 -13.10597,26.34342 -28.92609,47.37246 -55.75063,74.10703 -25.32747,25.24254 -44.48895,41.26368 -89.10659,74.50309 -27.42247,20.42928 -50.07732,38.32831 -67.5,53.33007 -41.9881,36.15373 -78.43465,71.99636 -85.53192,84.11466 -0.87753,1.49835 -1.7546,0.53812 -5.86227,-6.4181 z"
         style="fill:#fe1b1b;stroke:#ffffff;stroke-width:40;stroke-miterlimit:4;stroke-dasharray:none" />
      <path
         id="path3417"
         d="m 347.38863,984.72606 c -10.06335,-16.79247 -24.23149,-32.15395 -52.60292,-57.03355 -15.13121,-13.26892 -29.81628,-24.93171 -66.5,-52.81387 -68.80427,-52.29599 -88.48913,-68.70082 -117.5,-97.92133 -42.846715,-43.15634 -64.709953,-84.55118 -73.200846,-138.59507 -1.903777,-12.1174 -2.20422,-18.10139 -2.234246,-44.5 -0.04734,-41.61826 1.811219,-51.29084 14.923686,-77.66803 18.623028,-37.4623 44.827611,-63.94295 81.436486,-82.29442 23.2382,-11.64895 35.93516,-14.68666 65.57492,-15.68863 19.535,-0.66038 38.32904,0.60959 49.96928,3.37659 8.80254,2.09245 34.05106,14.6856 45.53538,22.71159 11.68661,8.16737 33.99831,30.72829 41.83456,42.30186 8.02131,11.8469 11.46343,19.29577 14.79227,32.01104 1.47589,5.6375 2.98827,10.25 3.36084,10.25 0.37258,0 3.29779,-5.7375 6.50046,-12.75 11.37202,-24.89989 19.68684,-37.44492 34.99327,-52.79627 21.90054,-21.96483 47.15504,-35.36978 79.41239,-42.15166 10.97251,-2.3069 15.05773,-2.6584 31.60155,-2.71911 36.83042,-0.13514 66.33131,8.59415 95.60961,28.29081 24.19051,16.27389 43.43599,38.04497 56.24515,63.62623 11.56694,23.10043 17.55797,59.63625 16.31567,99.5 -1.27185,40.81247 -6.98017,64.86276 -22.83608,96.21302 -24.25257,47.95209 -62.88253,87.36701 -146.33435,149.30787 -38.55799,28.6191 -66.42885,51.63425 -100.5,82.99072 -21.77169,20.03699 -46.37534,45.34363 -48.90517,50.30251 -1.17451,2.30223 -2.24361,4.18588 -2.37578,4.18588 -0.13216,0 -2.43442,-3.66128 -5.11613,-8.13618 z"
         style="fill:#fe1313;stroke:#ffffff;stroke-width:40;stroke-miterlimit:4;stroke-dasharray:none" />
      <path
         id="path3415"
         d="M 348.34638,986.27241 C 339.46073,971.08264 328.9315,958.70867 310.28571,941.54344 291.04953,923.83471 270.17987,906.67073 240.11448,883.83205 178.47606,837.00946 161.60217,823.62954 139.45859,804.0184 98.598826,767.83152 74.96536,739.22097 58.790662,706.36224 42.806111,673.88979 36.1927,645.00365 35.094592,602.86224 c -1.17932,-45.25798 2.930467,-65.22785 19.589926,-95.18945 18.357457,-33.01539 43.515505,-57.02992 77.604802,-74.0774 22.14109,-11.07239 35.68936,-14.32891 63.95001,-15.37134 21.36351,-0.78802 41.37026,0.78262 53.0379,4.16377 8.9007,2.57932 23.62185,9.51496 35.24339,16.60437 23.36308,14.25202 50.0444,42.8563 59.75012,64.05638 1.42171,3.10542 3.80487,10.40889 5.29593,16.22994 1.49105,5.82105 3.05032,10.58373 3.46502,10.58373 0.41471,0 0.75402,-0.47218 0.75402,-1.04929 0,-2.7139 17.47412,-36.81065 23.11608,-45.10575 8.10123,-11.91084 25.66505,-29.52407 37.395,-37.5002 40.0285,-27.21856 89.43282,-35.09835 137.66833,-21.95755 27.08616,7.37909 50.66207,20.82998 71.1836,40.61279 19.76561,19.0541 35.01685,42.80519 41.47301,64.58684 6.53075,22.03331 9.76156,51.41777 8.84141,80.41316 -1.24173,39.12888 -6.35784,61.77976 -20.74278,91.83569 -13.96093,29.17001 -32.45341,53.93105 -60.69787,81.27312 -24.04221,23.27409 -43.24193,39.05604 -91.44402,75.16596 -48.84897,36.59452 -83.02712,65.89262 -120.93208,103.66506 -14.01467,13.96567 -23.45115,24.17925 -24.77033,26.81017 -1.17205,2.3375 -2.25335,4.25 -2.4029,4.25 -0.14954,0 -2.0066,-2.96542 -4.12678,-6.58983 z"
         style="fill:#fe0b0b;stroke:#ffffff;stroke-width:40;stroke-miterlimit:4;stroke-dasharray:none" />
      <path
         id="path3413"
         d="m 350.21586,989.199 c -13.78423,-22.60721 -24.63206,-34.75149 -53.93015,-60.37544 -17.13088,-14.98258 -32.1262,-26.88641 -73,-57.95006 C 163.40252,825.36292 139.09599,805.09127 111.76141,777.86224 68.271761,734.54052 44.764845,689.48899 37.162517,634.8918 c -2.086384,-14.98366 -2.874121,-50.69224 -1.483359,-67.24155 0.633776,-7.5416 2.218779,-17.9161 3.522228,-23.05445 4.300263,-16.95214 16.217289,-40.57834 29.647363,-58.77762 7.981659,-10.81606 26.180491,-28.83511 36.455651,-36.09551 17.35055,-12.25986 39.90889,-23.28181 56.08179,-27.40142 21.92721,-5.58536 64.86024,-5.81738 85.93219,-0.46438 10.24339,2.60217 29.22874,11.91975 43.08221,21.14377 7.81996,5.20675 14.54581,10.92436 23.88512,20.30461 20.4739,20.56365 30.12824,35.85308 35.23873,55.80699 1.51428,5.9125 3.06222,10.75 3.43987,10.75 0.37764,0 0.99276,-1.0125 1.36692,-2.25 2.01231,-6.65547 18.09643,-37.48767 23.5857,-45.21223 8.2508,-11.61062 23.99359,-27.36192 35.36878,-35.38788 10.73382,-7.57343 29.54282,-16.98301 42,-21.01135 44.59084,-14.41954 93.36655,-9.21253 135.46387,14.46132 27.74852,15.60467 53.7694,43.5701 67.48903,72.53252 17.09228,36.08215 20.51989,108.19903 7.40816,155.86762 -5.06023,18.39679 -16.67719,42.62208 -29.97116,62.5 -11.5427,17.2593 -22.12856,29.87107 -40.32585,48.04333 -23.28453,23.25251 -45.56077,41.85614 -87.56405,73.12762 -29.26938,21.79109 -49.57543,37.84962 -70.10027,55.43703 -32.76577,28.07648 -72.21115,65.92078 -80.66625,77.39202 -2.43233,3.3 -4.56895,6.15154 -4.74805,6.33676 -0.17909,0.18522 -1.10397,-0.93978 -2.05528,-2.5 z"
         style="fill:#fe0000;stroke:#ffffff;stroke-width:40;stroke-miterlimit:4;stroke-dasharray:none" />
    </g>
    <path
       id="path4301"
       d="m 270.03125,825.26374 c -5.44138,-0.79059 -11.14516,-3.11778 -15.21028,-6.20593 -3.1657,-2.40489 -7.37759,-7.042 -9.2409,-10.17385 -3.03855,-5.10719 -4.37429,-9.69931 -4.67849,-16.08409 -0.48819,-10.24658 2.88023,-18.98317 10.06054,-26.09375 6.5635,-6.49976 13.42058,-9.44572 22.72542,-9.76338 7.2058,-0.246 11.9796,0.72434 17.43746,3.54442 9.68027,5.0018 16.60109,14.57421 18.13838,25.08778 0.60032,4.1056 0.23157,11.37865 -0.75765,14.94357 -1.41598,5.10289 -3.60307,9.11715 -7.32062,13.4365 -3.77651,4.38785 -9.90243,8.44725 -15.19837,10.07135 -4.6982,1.44079 -11.12501,1.9392 -15.95549,1.23738 z M 361.945,825.1069 c -3.0268,-0.94138 -5.57412,-3.1833 -6.88216,-6.05703 -0.56631,-1.24417 -0.91677,-2.88364 -1.26925,-5.9375 -2.98435,-25.85666 -13.36969,-47.79617 -31.41532,-66.36635 -19.48075,-20.04701 -42.42148,-31.24796 -70.15151,-34.25188 -4.6266,-0.50119 -7.7361,-2.21537 -9.72028,-5.35851 -1.65896,-2.62796 -1.72542,-3.40023 -1.62787,-18.91746 l 0.0901,-14.33909 1.02711,-2.08566 c 1.81682,-3.68925 5.29467,-6.06302 9.35088,-6.38235 1.25955,-0.0992 4.3447,0.0929 7.59076,0.47252 40.66222,4.75547 77.16268,24.26013 104.18095,55.67092 19.12156,22.23026 32.15623,50.63884 36.5608,79.68286 1.10855,7.30985 1.55616,11.92716 1.36288,14.05867 -0.34601,3.81587 -2.84603,7.37752 -6.41071,9.13297 l -2.08567,1.02711 -14.5385,0.0623 c -12.24123,0.0525 -14.77927,-0.0125 -16.06225,-0.41157 z m 89.74383,-0.0902 c -1.96883,-0.63738 -4.42497,-2.2983 -5.44439,-3.68168 -1.96652,-2.66863 -2.07088,-3.14418 -2.93596,-13.37892 -2.73181,-32.31987 -13.76362,-64.10554 -32.26654,-92.96875 -15.38291,-23.99621 -36.39547,-44.9196 -60.38569,-60.12945 -29.07388,-18.4329 -60.92523,-29.319 -93.75,-32.04172 -2.23438,-0.18534 -4.94133,-0.41664 -6.01545,-0.514 -3.84137,-0.34822 -7.34086,-2.90242 -9.09067,-6.6351 l -0.83138,-1.77348 0,-15.78125 c 0,-15.5547 0.01,-15.80241 0.68102,-17.25538 1.26707,-2.74268 4.59316,-5.69894 7.33952,-6.52346 2.96599,-0.89045 18.53274,0.33631 32.13571,2.53251 39.24977,6.33685 77.23793,22.53632 109.53125,46.70791 10.91392,8.16908 18.81624,15.10973 29.23184,25.67446 20.1287,20.41692 34.16801,40.00613 46.66621,65.11396 14.2891,28.70554 22.5846,58.14061 25.359,89.98084 0.2761,3.16915 0.5242,7.24728 0.5513,9.0625 0.044,2.97659 -0.033,3.47679 -0.7845,5.09811 -1.0943,2.35947 -3.6337,5.01118 -5.8334,6.09142 l -1.753,0.86088 -15.3125,0.0684 c -14.1398,0.0632 -15.4488,0.0243 -17.09237,-0.50781 z"
       style="fill:#fefefe" />
  </g>
</svg>
